<?xml version="1.0" standalone="no"?>
<!DOCTYPE svg PUBLIC "-//W3C//DTD SVG 20010904//EN"
 "http://www.w3.org/TR/2001/REC-SVG-20010904/DTD/svg10.dtd">
<svg version="1.0" xmlns="http://www.w3.org/2000/svg"
 width="750.000000pt" height="750.000000pt" viewBox="0 0 750.000000 750.000000"
 preserveAspectRatio="xMidYMid meet">

<g transform="translate(0.000000,750.000000) scale(0.100000,-0.100000)"
fill="#000000" stroke="none">
<path d="M6124 4845 c-27 -13 -70 -46 -96 -72 -108 -111 -757 -857 -752 -865
6 -9 291 -11 344 -2 31 6 63 38 250 250 118 134 227 258 242 275 l27 32 70
-142 71 -141 -162 0 -163 -1 -115 -129 c-63 -72 -117 -135 -118 -140 -4 -12
1091 -10 1103 2 8 7 -297 609 -375 742 -62 104 -119 169 -173 195 -56 27 -92
26 -153 -4z"/>
<path d="M1300 4846 c-130 -35 -155 -71 -331 -486 -71 -169 -83 -204 -86 -265
-4 -57 -1 -76 15 -101 44 -70 175 -100 387 -91 271 13 405 47 481 122 50 50
80 106 139 259 24 61 52 135 64 164 l21 52 -248 0 -247 -1 -46 -104 -47 -105
49 -6 c27 -4 49 -8 49 -11 0 -12 -31 -61 -52 -80 -33 -31 -71 -43 -105 -34
-25 7 -28 12 -27 47 1 46 126 324 162 359 31 31 59 35 266 35 l182 0 80 93
c44 50 93 109 108 130 l28 37 -398 -1 c-282 0 -412 -4 -444 -13z"/>
<path d="M2282 4827 c-17 -20 -322 -846 -322 -871 0 -36 20 -46 91 -46 48 0
70 4 80 16 7 8 39 83 71 166 32 84 60 154 63 156 6 7 -3 20 101 -137 49 -74
108 -155 131 -179 41 -43 43 -44 92 -40 42 4 62 14 114 54 282 219 360 279
368 282 4 2 -13 -57 -38 -130 -34 -97 -45 -140 -40 -160 l7 -28 209 0 c155 0
211 3 219 13 5 6 81 207 168 445 122 336 155 438 147 450 -8 13 -28 18 -85 20
l-74 3 -390 -280 c-214 -154 -393 -280 -399 -282 -5 -1 -81 125 -168 280
l-159 281 -88 0 c-59 0 -91 -4 -98 -13z"/>
<path d="M3956 4832 c-3 -5 -78 -204 -167 -442 -188 -506 -184 -480 -64 -480
90 0 81 -11 156 188 30 78 56 142 59 142 3 0 45 -60 93 -133 118 -177 144
-206 187 -213 69 -11 107 10 319 176 112 89 206 159 209 156 2 -3 -16 -63 -42
-134 -25 -71 -46 -141 -46 -156 l0 -26 213 0 c116 0 218 4 225 8 20 13 323
853 320 887 l-3 30 -78 3 -78 3 -396 -285 -397 -286 -18 33 c-10 17 -83 145
-161 282 l-142 250 -92 3 c-50 1 -94 -1 -97 -6z"/>
<path d="M1150 3183 c-45 -17 -77 -71 -60 -104 9 -16 22 -19 95 -19 47 0 85 2
85 4 0 2 7 20 15 40 l15 36 -30 0 c-23 0 -33 -7 -45 -31 -19 -36 -63 -39 -57
-4 8 49 30 65 87 65 29 0 57 5 60 10 7 11 -137 13 -165 3z"/>
<path d="M1353 3170 c-35 -21 -52 -63 -36 -89 8 -12 30 -17 92 -19 51 -2 81 1
81 8 0 5 -22 10 -51 10 -51 0 -51 0 -44 28 12 48 33 62 92 62 29 0 53 5 53 10
0 6 -32 10 -77 10 -60 0 -86 -5 -110 -20z"/>
<path d="M1566 3169 c-36 -28 -49 -64 -35 -91 10 -18 19 -20 89 -16 60 2 83 8
100 23 31 27 42 62 30 86 -9 16 -22 19 -84 19 -60 0 -78 -4 -100 -21z m114
-14 c0 -45 -49 -89 -79 -71 -13 9 4 56 26 74 23 16 53 15 53 -3z"/>
<path d="M1769 3133 c-13 -32 -25 -61 -27 -65 -2 -4 13 -8 33 -8 34 0 37 3 62
56 21 47 28 55 49 52 32 -4 32 -22 -1 -26 -29 -4 -31 -12 -10 -52 13 -26 21
-30 56 -30 l40 0 -16 30 c-9 17 -11 30 -5 30 18 0 50 39 44 55 -5 12 -26 15
-103 15 l-97 0 -25 -57z"/>
<path d="M2021 3161 c-32 -30 -40 -68 -19 -89 7 -7 43 -12 90 -12 76 0 78 1
93 30 21 41 19 50 -14 50 -22 0 -31 -6 -41 -31 -9 -22 -18 -29 -34 -27 -16 2
-20 9 -18 27 5 44 30 61 89 61 29 0 53 5 53 10 0 6 -35 10 -84 10 -79 0 -86
-2 -115 -29z"/>
<path d="M2226 3134 c-14 -31 -26 -60 -26 -64 0 -5 50 -9 110 -9 62 -1 110 3
110 8 0 6 -19 11 -42 13 l-42 3 42 28 42 27 20 -40 c19 -38 23 -40 66 -40 25
0 44 3 42 8 -33 70 -64 122 -73 122 -7 0 -51 -27 -99 -61 -48 -34 -90 -58 -94
-55 -3 4 4 27 16 51 29 60 28 65 -12 65 -32 0 -36 -4 -60 -56z"/>
<path d="M2603 3153 c-8 -21 -22 -50 -29 -65 -13 -26 -13 -28 5 -28 11 0 23
12 31 30 7 17 14 30 16 30 3 0 34 -13 71 -30 36 -16 71 -30 78 -30 7 0 24 27
39 61 31 71 30 69 11 69 -9 0 -21 -12 -27 -27 -7 -16 -13 -29 -14 -31 -1 -2
-29 10 -63 27 -81 41 -98 40 -118 -6z"/>
<path d="M2913 3153 c-8 -21 -22 -50 -29 -65 -13 -25 -13 -28 1 -28 9 0 20 12
26 28 l11 27 22 -27 c26 -33 39 -34 74 -10 50 35 53 35 42 8 -9 -25 -8 -26 26
-26 33 0 36 3 63 63 34 76 25 82 -53 32 -81 -52 -81 -52 -112 -6 -15 23 -33
41 -41 41 -8 0 -21 -17 -30 -37z"/>
<path d="M3177 3135 c-15 -31 -27 -60 -27 -65 0 -6 16 -10 35 -10 31 0 36 4
54 44 36 84 36 86 -1 86 -31 0 -36 -5 -61 -55z"/>
<path d="M3319 3161 c12 -16 21 -31 21 -34 0 -3 -24 -19 -52 -36 -29 -17 -46
-31 -38 -31 8 0 35 12 59 25 41 24 44 24 57 8 7 -10 14 -21 14 -25 0 -5 23 -8
50 -8 l51 0 -26 37 c-14 21 -25 40 -25 44 0 3 18 14 40 24 22 10 38 20 35 23
-3 3 -23 -3 -46 -13 -39 -18 -42 -18 -54 -2 -8 12 -26 17 -59 17 l-47 0 20
-29z"/>
<path d="M3539 3175 c-33 -18 -57 -71 -42 -94 8 -12 29 -17 88 -19 45 -2 83 2
89 8 7 7 -6 10 -41 10 -29 0 -55 5 -58 10 -4 6 2 25 12 43 18 29 24 32 81 37
34 3 62 1 62 -3 0 -4 -6 -20 -14 -35 -37 -72 -37 -72 61 -72 100 0 148 20 159
66 14 56 4 59 -192 61 -139 2 -185 -1 -205 -12z m318 -20 c1 -5 -6 -25 -17
-42 -14 -23 -27 -33 -45 -33 -30 0 -30 1 -4 51 15 31 25 40 41 37 12 -2 23 -7
25 -13z"/>
<path d="M4031 3146 c-28 -65 -34 -86 -22 -86 6 0 16 11 24 25 l13 26 24 -26
c29 -31 36 -31 83 0 39 27 44 26 27 -6 -10 -17 -7 -19 27 -19 39 0 46 9 91
122 8 18 -27 6 -88 -32 -36 -22 -68 -40 -72 -40 -4 0 -20 18 -34 40 -15 22
-33 40 -40 40 -7 0 -22 -20 -33 -44z"/>
<path d="M4346 3127 l-88 -62 62 -3 c35 -2 68 2 73 7 8 8 -4 11 -38 11 l-50 0
45 30 45 30 19 -40 c19 -38 22 -40 67 -40 l47 0 -35 65 c-19 36 -40 65 -46 65
-7 -1 -52 -29 -101 -63z"/>
<path d="M4566 3130 c-14 -34 -26 -63 -26 -66 0 -2 16 -4 35 -4 33 0 37 3 60
55 20 46 28 55 49 55 16 0 26 -6 26 -15 0 -9 -9 -15 -24 -15 -35 0 -38 -11
-14 -48 16 -26 26 -32 55 -32 24 0 34 4 30 13 -3 6 -8 19 -11 28 -5 10 1 19
19 27 19 9 25 18 23 35 -3 21 -8 22 -99 25 l-96 3 -27 -61z"/>
<path d="M4810 3180 c0 -5 11 -10 25 -10 30 0 30 -1 5 -50 -27 -53 -25 -60 13
-60 30 0 35 5 60 55 24 49 30 55 57 55 16 0 30 5 30 10 0 6 -38 10 -95 10 -57
0 -95 -4 -95 -10z"/>
<path d="M4993 3133 c-13 -32 -27 -61 -30 -65 -2 -5 13 -8 35 -8 42 0 38 -5
89 118 4 8 -6 12 -31 12 -35 0 -38 -3 -63 -57z"/>
<path d="M5138 3127 l-87 -62 56 -3 c72 -4 106 10 43 17 l-45 6 39 27 40 27
21 -37 c19 -34 25 -37 68 -40 l48 -3 -33 65 c-19 38 -39 65 -48 65 -8 0 -54
-28 -102 -62z"/>
<path d="M5351 3139 c-29 -70 -20 -79 75 -79 40 0 76 5 79 10 4 6 -12 10 -39
10 -53 0 -57 9 -26 70 l20 40 -43 0 c-44 0 -45 -1 -66 -51z"/>
<path d="M5660 3125 l-94 -65 72 0 c77 0 100 17 30 22 l-42 3 42 28 42 27 20
-40 c19 -38 23 -40 66 -40 25 0 44 3 42 8 -33 69 -64 122 -73 122 -6 0 -53
-29 -105 -65z"/>
<path d="M5886 3134 c-14 -31 -26 -60 -26 -65 0 -5 15 -9 34 -9 31 0 35 4 57
55 21 48 28 55 52 55 37 0 31 -24 -6 -28 -32 -4 -31 -2 -10 -47 15 -31 21 -35
55 -35 42 0 45 5 22 38 -12 18 -13 22 -1 22 21 0 50 37 44 55 -5 12 -25 15
-101 15 l-95 0 -25 -56z"/>
<path d="M6125 3180 c-4 -6 7 -10 24 -10 l31 0 -25 -55 -24 -55 38 0 c37 0 39
2 61 55 21 51 25 55 56 55 19 0 34 5 34 10 0 6 -38 10 -94 10 -53 0 -98 -4
-101 -10z"/>
<path d="M6329 3170 l-24 -20 26 -22 c14 -13 35 -28 45 -35 16 -10 10 -12 -38
-12 -32 -1 -58 -5 -58 -11 0 -6 33 -10 79 -10 121 0 157 42 73 86 l-37 19 58
3 c86 4 69 22 -22 22 -64 0 -83 -4 -102 -20z"/>
<path d="M1415 3130 c-4 -6 13 -10 44 -10 27 0 53 5 56 10 4 6 -13 10 -44 10
-27 0 -53 -4 -56 -10z"/>
<path d="M3600 3130 c0 -5 23 -10 50 -10 28 0 50 5 50 10 0 6 -22 10 -50 10
-27 0 -50 -4 -50 -10z"/>
<path d="M2275 2420 l-330 -5 454 -7 c520 -9 2412 -8 2911 1 l335 6 -475 7
c-503 8 -2339 7 -2895 -2z"/>
</g>
</svg>
